<svg width="815" height="134" viewBox="0 0 815 134" fill="none" xmlns="http://www.w3.org/2000/svg">
<g clip-path="url(#clip0_11_734)">
<path d="M57.3486 0C45.3113 15.4507 18.6665 43.6831 0.773409 60.5062C0.540805 60.7271 0 61.2447 0 62.2972C0 63.6579 1.09905 64.757 2.45979 64.757H16.6254C16.7242 65.5479 16.8231 66.3387 16.922 67.2284C19.3992 87.9883 24.4525 129.404 24.4525 129.404C24.6037 130.607 25.5051 131.596 26.732 131.596H87.9651C89.1979 131.596 90.0934 130.607 90.2446 129.404C90.2446 129.404 95.2979 87.9942 97.7752 67.2284C97.874 66.3387 97.9729 65.5479 98.0717 64.757H112.237C113.598 64.757 114.697 63.6579 114.697 62.2972C114.697 61.2389 114.156 60.7271 113.924 60.5062C96.0306 43.6831 69.3858 15.4507 57.3486 0Z" fill="#0074C1"/>
<path d="M57.3483 7.78081C68.4028 21.1207 88.2497 42.6075 106.172 59.8725H95.914C94.6812 59.8725 93.6462 60.7913 93.4891 62.0125L93.2216 64.1524C93.1228 64.9607 93.0181 65.7632 92.9193 66.6704C90.7909 84.5285 86.7087 118.035 85.6504 126.711H29.0462C27.9878 118.018 23.9056 84.5227 21.7773 66.6704C21.6784 65.7632 21.5738 64.9549 21.4749 64.1524L21.2074 62.0125C21.0562 60.7913 20.0153 59.8725 18.7825 59.8725H8.52466C26.441 42.6191 46.2938 21.1265 57.3483 7.78081Z" fill="white"/>
<path d="M68.2458 131.596C68.147 122.798 67.8504 105.789 67.8504 103.515C67.8504 92.3441 68.2807 83.3481 69.1355 76.7189C69.1995 76.2013 69.2344 75.4163 69.2344 75.2186C69.2344 74.4277 68.6413 74.0497 67.548 74.0497C65.1987 74.0497 59.7151 74.8057 57.7379 74.8406C57.6042 74.8406 57.4763 74.8406 57.3425 74.8406C57.2088 74.8406 57.0808 74.8406 56.9471 74.8406C54.9758 74.8057 49.4863 74.0497 47.137 74.0497C46.0496 74.0497 45.4506 74.4277 45.4506 75.2186C45.4506 75.4163 45.4855 76.2013 45.5495 76.7189C46.4101 83.3481 46.8346 92.3382 46.8346 103.515C46.8346 105.789 46.538 122.792 46.4392 131.596H68.2342H68.2458Z" fill="#0074C1"/>
<path d="M57.3483 61.4252C64.8442 61.4252 70.9208 55.3486 70.9208 47.8527C70.9208 40.3568 64.8442 34.2802 57.3483 34.2802C49.8525 34.2802 43.7759 40.3568 43.7759 47.8527C43.7759 55.3486 49.8525 61.4252 57.3483 61.4252Z" fill="#E50013"/>
<path d="M599.118 73.3637C600.607 73.3637 603.381 73.858 607.638 74.8465C611.505 75.5385 614.261 76.2829 615.959 76.8237C616.645 77.0446 617.093 77.3179 616.947 77.7134C616.901 77.8471 616.761 78.2076 616.651 78.8996C615.488 86.1394 614.767 93.7282 614.767 101.741C614.767 104.806 614.965 109.353 615.36 115.384C615.755 121.414 615.953 125.961 615.953 128.927C615.953 130.509 615.261 131.3 613.772 131.497C608.818 131.893 603.172 132.09 596.926 132.09C595.769 132.038 595.554 131.381 595.141 128.63C594.844 126.357 594.548 125.17 594.251 125.072C593.955 125.269 593.559 125.665 593.065 126.258C588.506 130.706 583.749 132.881 578.597 132.881C570.77 132.881 564.327 129.817 559.279 123.786C554.424 118.053 552.144 111.133 552.243 103.224C552.243 94.1294 554.72 86.814 559.773 81.1734C564.827 75.3408 571.962 72.3751 580.975 72.3751C587.215 72.3751 592.071 74.5499 595.641 78.8996C595.85 79.1555 596.042 79.3416 596.234 79.2951C596.519 79.2253 596.827 78.3065 597.223 76.4282C597.74 74.0673 598.514 73.3637 599.107 73.3637H599.118ZM625.967 75.8351C628.147 75.6374 631.415 75.2419 635.678 74.6488C641.918 73.2648 645.191 72.6717 645.389 72.7705C646.18 72.6717 646.674 73.9568 646.878 76.5271C647.076 78.7019 647.372 79.9871 647.866 80.2836C647.866 80.2836 649.355 78.9985 652.722 77.1202C656.583 75.0442 660.253 73.9568 663.817 73.9568C665.998 73.9568 667.085 74.4511 667.085 75.5385C667.085 76.6259 667.027 78.2135 666.789 80.2836C666.533 82.4643 666.393 84.1391 666.393 85.1276V89.5762C666.492 91.9487 666.492 93.5304 666.492 94.3213C666.492 95.903 665.591 96.4031 663.916 96.595C663.026 96.6997 662.131 96.6822 660.747 96.595C659.154 96.4962 658.072 96.2984 657.281 96.2984C654.013 96.2984 651.733 96.7927 650.541 97.8802C649.355 98.8687 648.855 100.945 648.954 104.207C648.855 105.789 648.855 108.458 648.954 112.017C648.954 115.477 648.954 118.047 649.053 119.826C649.053 120.914 649.204 122.589 649.349 124.868C649.495 127.148 649.448 128.921 649.448 130.009C649.448 130.898 648.901 131.55 647.564 131.59C645.68 131.689 642.708 131.689 638.748 131.689C634.788 131.689 631.91 131.59 629.63 131.393C628.24 131.195 627.647 130.602 627.746 129.514C627.647 126.252 627.647 121.507 627.746 115.279V100.846C627.647 91.5533 626.758 83.8425 625.17 77.7076C625.071 77.411 625.071 77.2133 625.071 77.0156C625.071 76.4224 625.368 76.027 625.961 75.8293L625.967 75.8351ZM720.392 79.2951C725.643 84.8311 728.318 91.4545 728.318 99.1653C728.318 103.218 727.033 105.492 724.451 106.085C724.056 106.184 719.991 106.58 712.164 107.37C707.407 107.964 700.47 108.557 691.16 109.249C691.654 111.819 693.242 113.796 696.114 115.18C698.493 116.366 701.168 116.861 704.139 116.861C707.605 116.861 711.222 116.128 714.641 113.994C716.13 113.063 717.473 112.104 719.055 111.255C719.212 111.168 719.41 111.179 719.549 111.29C720.369 111.929 721.672 113.86 723.457 117.157C725.341 120.815 726.33 123.089 726.33 124.077C726.33 124.374 726.033 124.868 725.44 125.56C720.683 130.701 713.054 133.37 702.848 133.37C693.335 133.37 685.705 130.602 679.96 125.066C674.017 119.53 671.045 112.116 671.144 102.718C671.045 93.5246 673.72 86.0115 679.07 80.272C684.519 74.2417 691.852 71.1772 700.865 71.1772C708.495 70.9795 715.037 73.7475 720.387 79.2834L720.392 79.2951ZM768.443 71.1888C770.722 71.1888 772.804 71.8808 774.484 73.3637C776.171 74.7477 777.061 76.5271 777.061 78.7019C777.061 83.8425 774.188 86.5116 768.443 86.5116C766.064 86.5116 764.081 85.9185 762.5 84.6333C760.714 83.1505 759.726 81.2722 759.726 78.7019C759.627 76.5271 760.517 74.6488 762.5 73.2648C764.186 71.8808 766.163 71.1888 768.443 71.1888ZM800.844 76.8237C801.536 76.8818 801.833 77.0214 801.833 77.5157C801.833 78.7019 801.938 80.4872 801.734 82.8539C801.536 85.1393 801.339 86.907 801.339 88.1922C801.339 89.675 801.734 90.367 802.63 90.367C803.717 90.2682 805.305 90.2682 807.386 90.2682C809.369 90.1693 810.951 90.1693 812.143 90.1693C812.736 90.1693 813.033 90.367 813.033 90.8613C813.033 91.5533 813.033 92.5419 812.934 93.9259C812.736 95.3099 812.637 96.2984 812.637 96.9904V100.055C812.637 101.439 812.684 102.422 812.736 103.218C812.771 103.812 812.341 104.108 811.451 104.108H808.578C807.09 104.009 806.101 104.009 805.508 104.009H802.071C801.897 104.009 801.74 104.091 801.682 104.341C801.6 104.672 801.618 105.26 801.647 105.986C801.676 106.713 801.647 107.667 801.647 109.15V112.017C801.647 114.488 801.751 116.314 802.339 117.355C803.112 118.716 804.822 119.373 807.096 119.233C807.892 119.181 808.881 118.937 810.265 118.64C811.55 118.344 812.445 118.245 813.039 118.245C813.731 118.245 814.219 118.535 814.225 119.233C814.236 120.129 814.027 121.408 813.829 123.286C813.632 124.967 813.574 126.351 813.533 127.142C813.481 128.037 813.3 128.497 813.137 128.723C813.009 128.904 812.643 129.218 811.852 129.613C807.985 131.689 803.729 132.777 799.17 132.875C790.749 132.875 786.487 129.712 786.487 123.286C786.487 121.309 786.586 118.344 786.783 114.389C786.882 110.534 786.882 107.667 786.882 105.789C786.882 104.405 786.19 103.812 784.702 103.812H783.411C782.224 103.812 781.974 103.41 781.823 102.625C781.748 102.236 781.724 101.538 781.823 100.648C781.922 99.5607 781.922 98.8687 781.922 98.3744C781.922 97.6824 781.87 96.7927 781.823 95.5076C781.777 94.2225 781.771 93.3386 781.823 92.7396C781.881 92.0476 782.474 91.4661 784.696 91.5533C785.69 91.594 786.184 91.4545 786.283 90.9602C786.481 89.7739 786.58 87.9945 786.58 85.6219C786.58 85.6219 786.318 81.5455 786.283 80.1848C786.19 76.7248 786.591 75.3059 787.272 75.1431C787.952 74.9803 789.138 75.2129 790.54 75.5385C792.209 75.9223 793.413 76.0444 794.006 76.1317C795.541 76.3584 797.739 76.5736 800.844 76.8237ZM776.072 90.0705C776.764 90.1112 777.119 90.4252 777.119 91.0183C777.119 91.1172 777.119 91.373 777.061 91.8499C776.369 97.4847 776.072 104.108 776.072 111.72C776.072 113.796 776.072 116.96 776.171 121.21C776.27 125.461 776.27 128.625 776.27 130.701C776.171 131.294 775.775 131.689 774.979 131.887C773.99 132.085 771.81 132.183 768.338 132.183C764.866 132.183 762.499 132.05 761.598 131.887C760.906 131.759 760.708 131.666 760.517 131.416C760.348 131.189 760.336 130.765 760.313 130.009C760.255 128.031 760.214 124.967 760.313 120.914C760.412 116.762 760.511 113.697 760.61 111.72C760.61 103.416 760.313 96.7927 759.621 91.8499C759.522 91.2567 759.522 90.9602 759.522 90.8613C759.522 90.1693 759.912 89.9658 760.708 89.9716C761.604 89.9774 762.872 90.0646 764.576 90.2682C766.151 90.4543 770.524 90.4136 772.205 90.2682C773.886 90.1228 775.171 90.0181 776.066 90.0705H776.072ZM707.413 95.5076C707.413 93.0362 706.477 90.9078 704.837 89.1808C703.098 87.349 701.069 86.3604 698.597 86.3139C696.126 86.2674 693.916 87.2618 692.259 89.3785C690.741 91.3149 689.979 93.6293 689.979 96.2984C689.979 97.3859 690.573 97.8802 691.666 97.979C694.538 97.8802 699.097 97.3859 705.337 96.3973C706.826 96.1996 707.419 95.903 707.419 95.5076H707.413ZM592.478 93.827C590.297 91.5533 587.523 90.367 584.156 90.367C580.789 90.367 577.917 91.4545 575.835 93.6293C573.753 95.7053 572.665 98.4733 572.665 101.933C572.764 105.196 573.956 107.964 576.131 110.237C578.312 112.511 580.987 113.697 584.156 113.697C587.523 113.697 590.297 112.61 592.379 110.435C594.559 108.26 595.647 105.393 595.647 101.933C595.647 98.671 594.658 95.903 592.478 93.827ZM105.602 76.4282C106.393 76.0328 107.98 75.7362 110.458 75.5385C113.33 75.2419 115.116 75.0442 115.61 74.9454C116.104 74.8465 117.692 74.4511 120.466 73.6602C122.251 73.0671 123.832 72.7705 125.123 72.7705C125.815 72.7705 126.211 74.1545 126.31 76.9225C126.409 79.6905 126.606 81.0745 126.903 81.0745C127.298 80.8768 127.793 80.5802 128.392 80.1848C131.857 77.4168 134.631 75.5385 136.713 74.5499C139.783 72.9682 143.15 72.2762 146.622 72.2762C150.285 72.2762 153.559 73.0671 156.432 74.7477C159.601 76.5271 161.683 79.1962 162.77 82.5574C164.753 79.6905 167.626 77.2191 171.388 75.2419C175.052 73.3637 178.622 72.3751 182.187 72.3751C187.339 72.3751 191.701 73.6602 195.068 76.1317C198.83 78.8008 200.714 82.6562 200.714 87.7968C200.714 89.7739 200.714 92.9373 200.615 97.287C200.417 101.538 200.319 104.701 200.319 106.777C200.319 109.249 200.417 113.005 200.615 118.047C200.714 122.99 200.714 126.746 200.714 129.317C200.714 130.799 200.121 131.59 199.028 131.788C197.742 131.887 194.765 131.887 190.113 131.887C185.461 131.887 182.187 131.788 180.995 131.59C179.809 131.393 179.309 130.404 179.309 128.723C179.309 126.944 179.309 124.176 179.407 120.518C179.506 116.861 179.506 114.192 179.506 112.511C179.506 105.393 179.506 100.352 179.407 97.3859C179.111 92.6407 176.831 90.367 172.668 90.4659C170.882 90.4659 169.074 91.3382 167.219 92.9373C165.364 94.5365 164.247 96.1007 164.05 98.0779C163.852 99.6596 163.852 104.602 163.951 112.61C163.951 114.389 164.003 117.256 164.05 121.111C164.096 124.967 164.05 127.735 164.05 129.712C164.05 130.997 163.555 131.59 162.462 131.59H144.43C143.243 131.59 142.743 130.799 142.743 129.119C142.743 127.241 142.743 124.374 142.842 120.617C142.941 116.861 142.941 114.29 142.941 112.412C142.941 110.83 142.842 108.656 142.842 105.69V99.0664C142.842 93.3327 140.661 90.4659 136.405 90.4659C134.619 90.367 132.642 91.059 130.659 92.443C128.479 93.9259 127.391 95.4087 127.391 97.0893C127.292 100.747 127.292 106.184 127.391 113.302V129.317C127.391 130.305 127.415 130.887 127.159 131.201C126.903 131.515 126.304 131.614 125.31 131.689C123.629 131.823 120.75 131.788 116.988 131.788C114.511 131.788 111.638 131.689 108.469 131.491C107.48 131.393 107.149 131.305 106.905 131.055C106.614 130.753 106.486 130.206 106.486 129.218V100.84C106.486 94.2166 106.091 86.8024 105.201 78.6903C105.032 77.1726 104.928 76.7539 105.596 76.4166L105.602 76.4282ZM226.975 73.6602C228.865 73.0904 230.447 72.6659 231.732 72.7705C232.691 72.8461 232.871 74.1545 232.918 76.9225C232.965 79.6905 233.017 81.0745 233.313 81.0745C233.709 80.8768 234.203 80.5802 234.802 80.1848C238.367 77.4168 241.239 75.5385 243.321 74.5499C246.293 72.9682 249.66 72.2762 253.23 72.2762C256.801 72.2762 260.069 73.0671 263.04 74.7477C266.209 76.5271 268.291 79.1962 269.379 82.5574C271.362 79.6905 274.234 77.2191 277.997 75.2419C281.66 73.3637 285.231 72.3751 288.795 72.3751C293.948 72.3751 298.21 73.6602 301.478 76.1317C305.24 78.8008 307.125 82.6562 307.125 87.7968C307.125 89.7739 307.125 92.9373 307.026 97.287C306.927 101.538 306.927 104.701 306.927 106.777C306.927 109.249 306.927 113.005 307.026 118.047C307.125 122.99 307.125 126.746 307.125 129.317C307.125 130.799 306.531 131.59 305.438 131.788C304.153 131.887 301.275 131.887 296.622 131.887C291.97 131.887 288.696 131.788 287.504 131.59C286.219 131.393 285.719 130.404 285.818 128.723C285.818 126.944 285.818 124.176 285.917 120.518C286.016 116.861 286.179 114.192 286.213 112.511C286.376 105.393 286.016 100.352 285.818 97.3859C285.62 92.6407 283.44 90.367 279.177 90.4659C277.293 90.4659 275.316 91.2567 273.432 92.9373C271.647 94.4202 270.658 96.1007 270.559 98.0779C270.361 99.6596 270.263 104.602 270.263 112.61C270.263 114.389 270.559 127.735 270.559 129.712C270.559 130.997 270.065 131.59 268.972 131.59H250.84C249.753 131.59 249.41 130.799 249.351 129.119C249.282 126.938 249.253 124.374 249.351 120.617C249.45 116.96 249.509 114.29 249.45 112.412C249.398 110.83 249.253 100.549 249.351 99.0664C249.351 93.3327 247.171 90.4659 242.914 90.4659C241.129 90.367 239.152 91.059 237.169 92.443C234.988 93.9259 233.901 95.4087 233.901 97.0893V129.322C233.901 130.311 233.936 131.009 233.604 131.3C233.337 131.532 232.714 131.625 231.918 131.695C230.04 131.864 227.062 131.794 223.3 131.794C220.823 131.794 217.95 131.695 214.781 131.497C213.792 131.398 213.193 131.3 213.094 131.102C212.897 130.805 212.943 130.218 212.995 129.224C213.147 126.165 212.995 121.414 212.995 115.087V100.852C212.995 94.2283 212.955 86.7675 211.71 78.7019C211.635 78.2018 211.623 77.9111 211.611 77.7134C211.559 77.0156 211.71 76.6259 212.303 76.4282C213.193 76.0328 214.88 75.7362 217.357 75.5385C220.229 75.2419 221.945 75.0093 222.497 74.8989C222.963 74.8116 224.201 74.486 226.963 73.6602H226.975ZM367.468 80.2836C373.015 85.8196 375.789 93.135 375.789 102.137C375.789 111.139 373.016 118.547 367.567 124.188C361.92 129.823 354.587 132.689 345.469 132.788C336.753 132.788 329.519 129.921 323.872 124.287C318.226 118.751 315.452 111.633 315.551 103.032C315.551 93.7398 318.226 86.2267 323.575 80.586C328.925 74.8523 336.258 71.9855 345.469 71.9855C354.587 71.8866 361.816 74.6546 367.468 80.2895V80.2836ZM394.025 46.4688C398.288 46.0734 401.754 45.8757 404.429 45.8757C405.121 45.8757 405.685 46.4048 405.615 47.754C405.516 49.3357 404.958 59.1225 404.923 60.111C404.772 63.9781 404.528 69.3047 404.528 76.2247C404.528 77.411 404.824 78.0041 405.516 78.103C405.912 78.103 406.307 78.0041 406.702 77.7076C410.168 73.8521 414.826 71.9739 420.67 71.9739C429.288 71.9739 436.127 74.9396 440.982 80.871C445.542 86.2092 447.722 93.4258 447.722 102.422C447.722 110.627 445.344 117.646 440.686 123.281C435.534 129.212 428.794 132.178 420.67 132.178C414.727 132.178 409.546 130.817 406.202 127.136C405.871 126.77 405.708 126.543 405.51 126.543C405.115 126.543 404.818 127.334 404.522 128.817C404.126 130.398 404.004 131.16 403.237 131.288C402.545 131.486 396.898 131.584 386.193 131.683C383.715 131.584 382.43 131.09 382.43 130.102C382.43 130.003 382.43 129.706 382.529 129.212C383.32 122.885 383.715 110.923 383.715 93.2222C383.715 75.5211 383.122 61.4834 382.029 49.0275L381.93 48.3355C381.93 47.6435 382.523 47.3469 383.814 47.3469C384.407 47.3469 387.879 47.0503 394.02 46.4572L394.025 46.4688ZM456.247 74.8465C457.433 74.7477 459.219 74.8465 461.597 75.1431C463.778 75.3408 465.458 75.4397 466.65 75.5385C467.738 75.5385 469.424 75.4397 471.704 75.2419C474.082 75.0442 475.867 74.9454 477.054 74.9454C478.042 74.9454 478.542 75.3408 478.542 76.1317V77.3179C477.554 85.0288 477.054 93.9259 477.054 104.114C477.054 107.08 477.152 111.528 477.152 117.361C477.251 122.996 477.35 127.246 477.449 130.212C477.449 131.003 476.955 131.497 475.861 131.695C474.472 131.893 471.5 131.992 466.743 131.992C461.987 131.992 458.817 131.893 457.526 131.695C456.596 131.538 456.235 131.393 456.038 130.974C455.898 130.677 455.84 130.212 455.84 129.125C455.84 126.456 455.939 122.402 455.939 116.866C456.038 111.232 456.137 106.981 456.235 104.213C456.137 93.042 455.642 84.046 454.747 77.4168C454.648 76.7248 454.648 76.3294 454.648 76.2305C454.648 75.2419 455.241 74.8465 456.235 74.8465H456.247ZM487.527 49.2426C487.602 48.254 488.248 47.754 489.242 47.754H510.444C511.525 47.754 512.078 48.2831 511.991 49.2659C511.967 49.5043 511.933 50.2254 511.933 50.2254C510.746 67.3276 510.147 82.4585 510.147 95.7053C510.147 106.481 510.246 114.785 510.246 120.623C510.246 121.612 510.246 123.193 510.345 125.368C510.444 127.345 510.543 128.927 510.642 130.113C510.543 130.904 510.048 131.398 509.054 131.596C507.269 131.893 504.1 131.992 499.541 131.992C494.586 131.992 491.516 131.893 490.126 131.596C489.236 131.398 488.736 130.904 488.637 130.014V127.444C488.637 123.885 488.637 118.646 488.736 111.627C488.835 104.509 488.934 99.27 489.033 95.81V72.9682C488.934 64.2688 488.265 56.7732 487.544 50.4231C487.468 49.7427 487.497 49.481 487.515 49.2426H487.527ZM532.931 75.5385C534.117 75.5909 535.804 75.4397 538.083 75.2419C540.363 75.0442 542.148 74.9454 543.235 74.9454C544.224 74.9454 544.724 75.3408 544.724 76.1317C544.724 76.2305 544.724 76.6259 544.625 77.3179C543.735 85.0288 543.334 93.9259 543.334 104.114C543.334 107.08 543.433 111.528 543.631 117.361C543.73 122.996 543.73 127.246 543.73 130.212C543.73 131.003 543.235 131.497 542.142 131.695C540.752 131.893 537.781 131.992 533.024 131.992C528.267 131.992 525.092 131.933 523.807 131.695C522.911 131.526 522.435 131.404 522.219 131.003C522.115 130.805 522.121 130.212 522.121 129.125C522.121 126.456 522.219 122.402 522.417 116.866C522.516 111.232 522.516 106.981 522.516 104.213C522.417 93.042 521.923 84.046 521.027 77.4168C520.928 76.7248 520.928 76.3352 520.946 76.1956C521.051 75.3815 521.423 74.9454 522.516 74.9454C523.702 74.8465 525.377 75.0442 527.668 75.2419C529.959 75.4397 531.826 75.4862 532.919 75.5385H532.931ZM415.128 113.703C418.495 113.703 421.17 112.517 423.153 110.243C424.939 108.068 425.927 105.201 425.927 101.741C425.927 98.4791 424.939 95.7111 422.857 93.4374C420.775 91.1637 418.1 90.0763 414.931 90.1751C411.564 90.0763 408.889 91.1637 407.005 93.4374C405.121 95.6123 404.132 98.4791 404.231 101.939C404.132 105.399 405.022 108.266 407.005 110.441C408.988 112.616 411.762 113.703 415.128 113.703ZM353.302 93.9259C351.319 91.4545 348.743 90.2682 345.673 90.367C342.504 90.2682 339.928 91.4545 337.846 93.9259C335.962 96.1996 334.973 98.9676 334.973 102.131C334.973 105.294 335.962 108.161 337.846 110.435C339.829 112.808 342.504 114.093 345.673 114.192C348.743 114.093 351.319 112.808 353.302 110.435C355.186 108.161 356.274 105.393 356.373 102.131C356.274 98.9676 355.285 96.2984 353.302 93.9259Z" fill="#0074C1"/>
<path d="M752.294 124.775C752.195 129.817 749.322 132.387 743.676 132.387C741.1 132.288 738.919 131.596 737.337 130.41C735.651 128.927 734.761 127.148 734.86 124.775C734.86 122.501 735.849 120.623 737.733 119.14C739.32 117.756 741.199 117.163 743.676 117.163C745.857 117.163 747.84 117.855 749.619 119.14C751.305 120.623 752.195 122.402 752.294 124.775Z" fill="#0074C1"/>
<path d="M466.65 64.9899C474.066 64.9899 480.077 58.9784 480.077 51.5628C480.077 44.1473 474.066 38.1358 466.65 38.1358C459.235 38.1358 453.223 44.1473 453.223 51.5628C453.223 58.9784 459.235 64.9899 466.65 64.9899Z" fill="#E50013"/>
<path d="M532.838 64.9899C540.253 64.9899 546.265 58.9784 546.265 51.5628C546.265 44.1473 540.253 38.1358 532.838 38.1358C525.422 38.1358 519.411 44.1473 519.411 51.5628C519.411 58.9784 525.422 64.9899 532.838 64.9899Z" fill="#E50013"/>
</g>
<defs>
<clipPath id="clip0_11_734">
<rect width="815" height="134" fill="white"/>
</clipPath>
</defs>
</svg>
